<svg aria-hidden="true" style="position: absolute; width: 0; height: 0; overflow: hidden;" version="1.1" xmlns="http://www.w3.org/2000/svg" xmlns:xlink="http://www.w3.org/1999/xlink">
<defs>
<symbol id="icon-arrow-circle-left" viewBox="0 0 32 32">
<path fill="#b26519" style="fill: var(--color1, #b26519)" d="M0.5 16c0-8.563 6.938-15.5 15.5-15.5s15.5 6.938 15.5 15.5c0 8.563-6.937 15.5-15.5 15.5s-15.5-6.937-15.5-15.5zM16 29.5c7.419 0 13.5-6.006 13.5-13.5 0-7.419-6.006-13.5-13.5-13.5-7.419 0-13.5 6.006-13.5 13.5 0 7.419 6.006 13.5 13.5 13.5zM16.781 23.719l7.194-7.188c0.294-0.294 0.294-0.769 0-1.062l-7.194-7.188c-0.294-0.294-0.769-0.294-1.063 0l-0.431 0.431c-0.294 0.294-0.294 0.781 0.013 1.069l5.344 5.156h-11.894c-0.412 0-0.75 0.338-0.75 0.75v0.625c0 0.412 0.338 0.75 0.75 0.75h11.894l-5.35 5.156c-0.3 0.294-0.306 0.775-0.012 1.069l0.431 0.431c0.3 0.294 0.775 0.294 1.069 0z"></path>
</symbol>
<symbol id="icon-arrow-left" viewBox="0 0 32 32">
<path fill="currentColor" d="M21.981 1.91c0.198-0.198 0.447-0.298 0.719-0.298s0.521 0.099 0.719 0.298c0.397 0.397 0.397 1.042 0 1.439l-12.651 12.651 12.651 12.651c0.397 0.397 0.397 1.042 0 1.439s-1.042 0.397-1.439 0l-13.37-13.37c-0.397-0.397-0.397-1.042 0-1.439l13.37-13.37z"></path>
</symbol>
<symbol id="icon-arrow-right" viewBox="0 0 32 32">
<path fill="currentColor" d="M10.019 30.090c-0.198 0.198-0.447 0.298-0.719 0.298s-0.521-0.099-0.719-0.298c-0.397-0.397-0.397-1.042 0-1.439l12.651-12.651-12.651-12.651c-0.397-0.397-0.397-1.042 0-1.439s1.042-0.397 1.439 0l13.371 13.371c0.397 0.397 0.397 1.042 0 1.439l-13.37 13.37z"></path>
</symbol>
</defs>
</svg>
